<?xml version="1.0" encoding="UTF-8" standalone="no"?>
<!DOCTYPE svg PUBLIC "-//W3C//DTD SVG 1.1//EN"
 "http://www.w3.org/Graphics/SVG/1.1/DTD/svg11.dtd">
<!-- Generated by graphviz version 7.0.3 (0)
 -->
<!-- Title: G Pages: 1 -->
<svg width="272pt" height="422pt"
 viewBox="0.00 0.00 272.10 422.39" xmlns="http://www.w3.org/2000/svg" xmlns:xlink="http://www.w3.org/1999/xlink">
<g id="graph0" class="graph" transform="scale(1 1) rotate(0) translate(4 418.39)">
<title>G</title>
<polygon fill="white" stroke="none" points="-4,4 -4,-418.39 268.1,-418.39 268.1,4 -4,4"/>
<text text-anchor="middle" x="132.05" y="-67.8" font-family="Times,serif" font-size="14.00"> &#160;&#160;&#160;green border means initial state</text>
<text text-anchor="middle" x="132.05" y="-52.8" font-family="Times,serif" font-size="14.00"> &#160;&#160;&#160;red font means trap state</text>
<text text-anchor="middle" x="132.05" y="-37.8" font-family="Times,serif" font-size="14.00"> &#160;&#160;&#160;dot&#45;arrow means stack independency</text>
<text text-anchor="middle" x="132.05" y="-22.8" font-family="Times,serif" font-size="14.00"> &#160;&#160;&#160;bold arrow means deterministic</text>
<text text-anchor="middle" x="132.05" y="-7.8" font-family="Times,serif" font-size="14.00"> &#160;&#160;&#160;</text>
<!-- id5 -->
<g id="node1" class="node">
<title>id5</title>
<ellipse fill="none" stroke="black" cx="68.1" cy="-214.29" rx="22.18" ry="22.18"/>
<ellipse fill="none" stroke="black" cx="68.1" cy="-214.29" rx="26.2" ry="26.2"/>
<text text-anchor="middle" x="68.1" y="-210.59" font-family="Times,serif" font-size="14.00">id5</text>
</g>
<!-- id4 -->
<g id="node2" class="node">
<title>id4</title>
<ellipse fill="none" stroke="black" cx="26.1" cy="-125.1" rx="22.18" ry="22.18"/>
<ellipse fill="none" stroke="black" cx="26.1" cy="-125.1" rx="26.2" ry="26.2"/>
<text text-anchor="middle" x="26.1" y="-121.4" font-family="Times,serif" font-size="14.00" fill="red">id4</text>
</g>
<!-- id5&#45;&gt;id4 -->
<g id="edge4" class="edge">
<title>id5&#45;&gt;id4</title>
<path fill="none" stroke="black" d="M57.06,-190.38C52.18,-180.25 46.37,-168.18 41.1,-157.24"/>
<ellipse fill="black" stroke="black" cx="39.16" cy="-153.21" rx="4" ry="4"/>
</g>
<!-- id2 -->
<g id="node3" class="node">
<title>id2</title>
<ellipse fill="none" stroke="black" cx="47.1" cy="-309.39" rx="27" ry="18"/>
<text text-anchor="middle" x="47.1" y="-305.69" font-family="Times,serif" font-size="14.00">id2</text>
</g>
<!-- id2&#45;&gt;id5 -->
<g id="edge2" class="edge">
<title>id2&#45;&gt;id5</title>
<path fill="none" stroke="black" d="M45.7,-291.05C45.35,-281.33 45.63,-269.05 48.1,-258.39 48.89,-254.97 49.97,-251.49 51.23,-248.07"/>
<polygon fill="black" stroke="black" points="54.44,-249.45 55.09,-238.87 47.99,-246.74 54.44,-249.45"/>
<text text-anchor="middle" x="129.6" y="-262.19" font-family="Times,serif" font-size="14.00">any_symbol, [stack_any/B,B]</text>
</g>
<!-- id2&#45;&gt;id4 -->
<g id="edge1" class="edge">
<title>id2&#45;&gt;id4</title>
<path fill="none" stroke="black" d="M42.85,-291.18C39.64,-277.5 35.42,-257.84 33.1,-240.39 29.55,-213.72 27.8,-183.3 26.94,-160.55"/>
<ellipse fill="black" stroke="black" cx="26.78" cy="-156.12" rx="4" ry="4"/>
</g>
<!-- id1 -->
<g id="node4" class="node">
<title>id1</title>
<ellipse fill="none" stroke="green" cx="139.1" cy="-396.39" rx="32.49" ry="18"/>
<text text-anchor="middle" x="139.1" y="-392.69" font-family="Times,serif" font-size="14.00">node1</text>
</g>
<!-- id1&#45;&gt;id2 -->
<g id="edge5" class="edge">
<title>id1&#45;&gt;id2</title>
<path fill="none" stroke="black" stroke-width="2.5" d="M123.07,-380.59C109.05,-367.63 88.45,-348.6 72.24,-333.62"/>
<polygon fill="black" stroke="black" stroke-width="2.5" points="74.83,-331.25 65.11,-327.03 70.08,-336.39 74.83,-331.25"/>
<text text-anchor="middle" x="128.1" y="-349.19" font-family="Times,serif" font-size="14.00">a, [A/A,A]</text>
</g>
<!-- id3 -->
<g id="node5" class="node">
<title>id3</title>
<ellipse fill="none" stroke="green" cx="220.1" cy="-309.39" rx="27" ry="18"/>
<text text-anchor="middle" x="220.1" y="-305.69" font-family="Times,serif" font-size="14.00">id3</text>
</g>
<!-- id1&#45;&gt;id3 -->
<g id="edge6" class="edge">
<title>id1&#45;&gt;id3</title>
<path fill="none" stroke="black" stroke-width="2.5" d="M153.58,-380.2C165.52,-367.67 182.68,-349.65 196.59,-335.06"/>
<polygon fill="black" stroke="black" stroke-width="2.5" points="199.04,-337.57 203.4,-327.91 193.97,-332.74 199.04,-337.57"/>
<text text-anchor="middle" x="213.1" y="-349.19" font-family="Times,serif" font-size="14.00">b, [B/B,B]</text>
</g>
<!-- id3&#45;&gt;id5 -->
<g id="edge3" class="edge">
<title>id3&#45;&gt;id5</title>
<path fill="none" stroke="black" stroke-width="2.5" d="M221.27,-291.16C221.06,-280.5 218.96,-267.21 211.1,-258.39 185.25,-229.39 140.67,-219.58 108.15,-216.42"/>
<polygon fill="black" stroke="black" stroke-width="2.5" points="108.6,-212.94 98.37,-215.7 108.08,-219.93 108.6,-212.94"/>
<text text-anchor="middle" x="241.1" y="-262.19" font-family="Times,serif" font-size="14.00">c, [A/C]</text>
</g>
</g>
</svg>
