<?xml version="1.0" encoding="UTF-8" standalone="no"?>
<!DOCTYPE svg PUBLIC "-//W3C//DTD SVG 1.1//EN"
 "http://www.w3.org/Graphics/SVG/1.1/DTD/svg11.dtd">
<!-- Generated by graphviz version 7.0.3 (0)
 -->
<!-- Title: G Pages: 1 -->
<svg width="242pt" height="271pt"
 viewBox="0.00 0.00 242.00 270.89" xmlns="http://www.w3.org/2000/svg" xmlns:xlink="http://www.w3.org/1999/xlink">
<g id="graph0" class="graph" transform="scale(1 1) rotate(0) translate(4 266.89)">
<title>G</title>
<polygon fill="white" stroke="none" points="-4,4 -4,-266.89 238,-266.89 238,4 -4,4"/>
<text text-anchor="middle" x="117" y="-67.8" font-family="Times,serif" font-size="14.00"> &#160;&#160;&#160;green border means initial state</text>
<text text-anchor="middle" x="117" y="-52.8" font-family="Times,serif" font-size="14.00"> &#160;&#160;&#160;red font means trap state</text>
<text text-anchor="middle" x="117" y="-37.8" font-family="Times,serif" font-size="14.00"> &#160;&#160;&#160;dot&#45;arrow means stack independency</text>
<text text-anchor="middle" x="117" y="-22.8" font-family="Times,serif" font-size="14.00"> &#160;&#160;&#160;bold arrow means deterministic</text>
<text text-anchor="middle" x="117" y="-7.8" font-family="Times,serif" font-size="14.00"> &#160;&#160;&#160;</text>
<!-- id2 -->
<g id="node1" class="node">
<title>id2</title>
<ellipse fill="none" stroke="black" cx="62.22" cy="-137.45" rx="34.4" ry="34.4"/>
<ellipse fill="none" stroke="black" cx="62.22" cy="-137.45" rx="38.39" ry="38.39"/>
<text text-anchor="middle" x="62.22" y="-133.75" font-family="Times,serif" font-size="14.00">no de2</text>
</g>
<!-- id4 -->
<g id="node2" class="node">
<title>id4</title>
<ellipse fill="none" stroke="black" cx="183.22" cy="-244.89" rx="27" ry="18"/>
<text text-anchor="middle" x="183.22" y="-241.19" font-family="Times,serif" font-size="14.00">id4</text>
</g>
<!-- id1 -->
<g id="node3" class="node">
<title>id1</title>
<ellipse fill="none" stroke="green" cx="151.22" cy="-137.45" rx="32.49" ry="18"/>
<text text-anchor="middle" x="151.22" y="-133.75" font-family="Times,serif" font-size="14.00">node1</text>
</g>
<!-- id3 -->
<g id="node4" class="node">
<title>id3</title>
<ellipse fill="none" stroke="black" cx="106.22" cy="-244.89" rx="32.49" ry="18"/>
<text text-anchor="middle" x="106.22" y="-241.19" font-family="Times,serif" font-size="14.00" fill="red">node3</text>
</g>
<!-- id3&#45;&gt;id2 -->
<g id="edge1" class="edge">
<title>id3&#45;&gt;id2</title>
<path fill="none" stroke="black" d="M99.15,-226.95C94.26,-215.22 87.5,-199.02 81.1,-183.67"/>
<polygon fill="black" stroke="black" points="84.41,-182.54 77.33,-174.65 77.95,-185.23 84.41,-182.54"/>
<text text-anchor="middle" x="108.72" y="-197.69" font-family="Times,serif" font-size="14.00">a, [A/]</text>
</g>
<!-- id3&#45;&gt;id1 -->
<g id="edge2" class="edge">
<title>id3&#45;&gt;id1</title>
<path fill="none" stroke="black" d="M118.21,-227.71C122.09,-221.97 126.18,-215.33 129.22,-208.89 135.58,-195.46 140.7,-179.73 144.39,-166.55"/>
<polygon fill="black" stroke="black" points="147.68,-167.77 146.87,-157.21 140.92,-165.97 147.68,-167.77"/>
<text text-anchor="middle" x="153.72" y="-197.69" font-family="Times,serif" font-size="14.00">b, [B/]</text>
</g>
</g>
</svg>
